<?xml version="1.0" encoding="UTF-8"?>
<!DOCTYPE svg PUBLIC "-//W3C//DTD SVG 1.1//EN" "http://www.w3.org/Graphics/SVG/1.1/DTD/svg11.dtd">
<!-- Creator: CorelDRAW X8 -->
<svg xmlns="http://www.w3.org/2000/svg" xml:space="preserve" width="113" height="86" version="1.1" style="shape-rendering:geometricPrecision; text-rendering:geometricPrecision; image-rendering:optimizeQuality; fill-rule:evenodd; clip-rule:evenodd"
viewBox="0 0 3000 3000"
 xmlns:xlink="http://www.w3.org/1999/xlink">
 <defs>
  <style type="text/css">
   <![CDATA[
    .str0 {stroke:#3ABBE6;stroke-width:6.94488}
    .str1 {stroke:white;stroke-width:6.94488}
    .fil2 {fill:none}
    .fil1 {fill:#3ABBE6}
    .fil0 {fill:white}
    .fil4 {fill:#28B0DD}
    .fil5 {fill:#78C4D8}
    .fil3 {fill:#FDFFFE}
   ]]>
  </style>
 </defs>
 <g id="Layer_x0020_1">
  <metadata id="CorelCorpID_0Corel-Layer"/>
  <g id="_1476022226336">
   <circle class="fil0 str0" cx="1494" cy="1434" r="775"/>
   <circle class="fil1 str1" cx="1494" cy="1434" r="727"/>
   <g>
    <path class="fil2" d="M1054 1207l143 239 288 -1 130 226c7,8 5,-11 6,11l-714 -4c-8,-18 -7,-432 -3,-480l137 0c22,3 6,0 13,9zm528 852c-13,-34 -50,-73 -65,-106 -9,-18 32,-81 47,-109 101,-189 93,-143 50,-219 -22,-37 -41,-68 -64,-106 -40,-66 -57,-76 -40,-106 17,-30 106,-198 119,-211 12,11 365,595 369,612 -17,7 -35,21 -52,30 -19,11 -35,21 -52,31 -41,25 -289,181 -312,184zm-359 -631c3,-18 144,-268 166,-310l169 -306c19,0 42,16 57,25 55,32 351,185 368,202l-65 125 -297 8 -142 256 -256 0zm-192 -257c-6,9 8,4 -15,9l-128 6 0 512 163 2c2,16 1,4 -5,9 -7,34 -58,102 -63,137 38,17 75,40 110,59 33,19 74,40 110,60 33,18 200,112 219,115 23,-22 50,-91 74,-118 22,12 62,98 87,118 31,-8 374,-230 439,-262 -9,-28 -72,-109 -81,-138l158 -2 0 -515 -159 -1c12,-34 58,-108 62,-136l-225 -119c-33,-18 -206,-117 -227,-116l-66 120 -83 -123c-30,12 -82,46 -113,64 -45,27 -310,179 -326,195 10,26 66,111 69,124z"/>
    <path class="fil3" d="M1054 1207l143 239 288 -1 130 226c7,8 5,-11 6,11l-714 -4c-8,-18 -7,-432 -3,-480l137 0c22,3 6,0 13,9zm528 852c-13,-34 -49,-73 -65,-106 -9,-18 32,-81 47,-109 101,-189 93,-143 50,-219 -22,-37 -41,-68 -64,-106 -39,-66 -57,-76 -40,-106 17,-30 107,-198 119,-211 12,11 365,595 369,612 -17,7 -35,21 -52,30 -19,11 -35,21 -52,31 -40,25 -289,181 -312,184zm-359 -631c3,-18 145,-268 166,-310l169 -306c19,0 42,16 57,25 56,32 352,185 368,202l-65 125 -296 8 -142 256 -257 0zm-192 -257c-6,9 8,4 -15,9l-128 6 0 512 163 2c2,16 1,4 -5,9 -6,34 -58,102 -63,137 38,17 75,40 110,59 33,19 74,40 110,60 33,18 200,112 219,115 23,-22 50,-91 74,-118 23,12 62,98 87,118 31,-8 374,-230 439,-262 -9,-28 -72,-109 -80,-138l157 -2 0 -515 -158 -1c11,-34 57,-108 61,-136l-225 -119c-33,-18 -206,-117 -227,-116l-66 120 -83 -123c-30,12 -82,46 -112,64 -46,27 -311,179 -327,195 10,26 66,111 69,124z"/>
    <path class="fil4" d="M1582 2059c23,-3 271,-159 312,-184 17,-10 33,-20 52,-31 17,-9 35,-23 52,-30 -4,-17 -357,-601 -369,-612 -13,13 -102,181 -119,211 -17,30 0,40 40,106 23,38 42,69 64,106 43,76 51,30 -50,219 -15,28 -56,91 -47,109 15,33 52,72 65,106z"/>
    <path class="fil4" d="M1223 1428l256 0 142 -256 297 -8 65 -125c-17,-17 -313,-170 -368,-202 -15,-9 -38,-25 -57,-25l-169 306c-22,42 -163,292 -166,310z"/>
    <path class="fil4" d="M1615 1671l-130 -226 -288 1 -143 -239c-29,-9 -112,-4 -146,-4l0 469 621 4c21,0 73,8 86,-5z"/>
    <path class="fil5" d="M1615 1671c-13,13 -65,5 -86,5l-621 -4 0 -469c34,0 117,-5 146,4 -7,-9 9,-6 -13,-9l-137 0c-4,48 -5,462 3,480l714 4c-1,-22 1,-3 -6,-11z"/>
   </g>
  </g>
 </g>
</svg>
